<svg width="73" height="71" viewBox="0 0 73 71" fill="none" xmlns="http://www.w3.org/2000/svg">
<path d="M70.7122 37.7184H60.0067V32.865C60.0067 32.0992 59.3761 31.4783 58.5981 31.4783H54.3723V26.6249C54.3723 25.859 53.7416 25.2382 52.9636 25.2382H50.1464V23.5738C50.1461 16.3959 44.5766 10.4747 37.4689 9.77665V8.32073H47.3289C48.1069 8.32073 48.7375 7.69976 48.7375 6.93401V1.38672C48.7375 0.620973 48.1069 0 47.3289 0H36.0603C35.2823 0 34.6516 0.620973 34.6516 1.38672V6.93401V9.77651C27.5436 10.4744 21.9744 16.3957 21.9741 23.5738V25.2382H19.1569C18.3792 25.2382 17.7483 25.859 17.7483 26.6249V31.4783H13.5224C12.7447 31.4783 12.1138 32.0992 12.1138 32.865V37.7184H1.40861C0.630496 37.7184 0 38.3393 0 39.1051V69.6133C0 70.3791 0.630637 71 1.40861 71H70.7122C71.49 71 72.1208 70.3791 72.1208 69.6133V39.1051C72.1208 38.3393 71.49 37.7184 70.7122 37.7184ZM37.4689 2.77344H45.9203V5.54729H37.4689V2.77344ZM24.7913 23.5738C24.7916 17.4573 29.8467 12.4809 36.0603 12.4809C42.2735 12.4809 47.3289 17.4573 47.3292 23.5738V25.2382H24.7913V23.5738ZM20.5655 28.0116H51.555V31.4783H47.3283H20.5655V28.0116ZM29.0166 57.9826L27.1632 58.5908C26.5879 58.7796 26.2 59.3096 26.2 59.9064V68.2266H20.5655V51.1991L29.0166 48.4259V57.9826ZM34.6516 68.2266H29.0172V60.906L30.8432 60.3068C30.8443 60.3065 30.8454 60.3061 30.8464 60.3058L34.6516 59.0571V68.2266ZM36.495 55.8144C36.4768 55.8087 36.4586 55.804 36.4404 55.799C36.4171 55.7926 36.3937 55.7865 36.3703 55.7812C36.3524 55.7773 36.3342 55.7736 36.3161 55.7704C36.2894 55.7655 36.2627 55.7617 36.2361 55.7583C36.2207 55.7564 36.2052 55.7543 36.1899 55.7529C36.1035 55.745 36.0167 55.745 35.9307 55.7529C35.915 55.7543 35.8998 55.7564 35.8842 55.7583C35.8576 55.7617 35.8308 55.7655 35.8045 55.7704C35.7863 55.7736 35.7681 55.7773 35.7502 55.7812C35.7266 55.7865 35.7032 55.7926 35.6801 55.799C35.6619 55.804 35.6435 55.8087 35.6256 55.8144C35.622 55.8156 35.6184 55.8163 35.6149 55.8175L31.8339 57.0581V47.5015L36.0603 46.1147L40.2855 47.5011V57.0578L36.5057 55.8175C36.5021 55.8163 36.4985 55.8156 36.495 55.8144ZM43.1036 68.2266H37.4689V59.0571L41.26 60.3011C41.2675 60.3036 41.2744 60.3061 41.2817 60.3083L43.1036 60.9061V68.2266ZM45.9208 68.2266V59.9064C45.9208 59.3094 45.5326 58.7796 44.9576 58.5908L43.1028 57.9822V48.4255L51.555 51.1991V68.2266H45.9208ZM69.3036 68.2266H54.3723V50.1995C54.3723 49.6025 53.9843 49.0727 53.409 48.8839L36.5057 43.3373C36.2165 43.2425 35.904 43.2425 35.6149 43.3373L30.0066 45.1777L30.0063 45.1778L18.7115 48.8841C18.1362 49.0728 17.7483 49.6028 17.7483 50.1997V68.2266H2.81723V40.4918H13.5224C14.3004 40.4918 14.931 39.8708 14.931 39.1051V34.2517H17.748V39.1051C17.748 39.8708 18.3789 40.4918 19.1566 40.4918C19.9346 40.4918 20.5652 39.8708 20.5652 39.1051V34.2517H23.3824V35.0882C23.3824 35.8539 24.0134 36.4749 24.7911 36.4749C25.569 36.4749 26.1997 35.8539 26.1997 35.0882V34.2517H29.0166V39.1051C29.0166 39.8708 29.6475 40.4918 30.4252 40.4918C31.2032 40.4918 31.8339 39.8708 31.8339 39.1051V34.2517H34.6514V35.0882C34.6514 35.8539 35.282 36.4749 36.06 36.4749C36.8377 36.4749 37.4686 35.8539 37.4686 35.0882V34.2517H40.2855V39.1051C40.2855 39.8708 40.9162 40.4918 41.6942 40.4918C42.472 40.4918 43.1028 39.8708 43.1028 39.1051V34.2517H45.92V35.0883C45.9203 35.854 46.5509 36.4749 47.3286 36.4749H47.3289C48.1069 36.4747 48.7375 35.8538 48.7372 35.088V34.2517H51.5542V39.1051C51.5542 39.8708 52.1851 40.4918 52.9628 40.4918C53.7408 40.4918 54.3714 39.8708 54.3714 39.1051V34.2517H57.1895V39.1051C57.1895 39.8708 57.8204 40.4918 58.5981 40.4918H69.3036V68.2266Z" fill="black"/>
<path d="M13.5224 48.8129C12.7447 48.8129 12.1138 49.4337 12.1138 50.1996V65.0503C12.1138 65.816 12.7447 66.437 13.5224 66.437C14.3004 66.437 14.9311 65.816 14.9311 65.0503V50.1996C14.9311 49.4337 14.3004 48.8129 13.5224 48.8129Z" fill="black"/>
<path d="M57.1892 50.1996V65.0503C57.1892 65.816 57.8201 66.437 58.5978 66.437C59.3758 66.437 60.0064 65.816 60.0064 65.0503V50.1996C60.0064 49.4337 59.3758 48.8129 58.5978 48.8129C57.8201 48.8129 57.1892 49.4337 57.1892 50.1996Z" fill="black"/>
<path d="M47.3283 37.6855C46.5506 37.6855 45.9197 38.3065 45.9197 39.0723V39.105C45.9197 39.8707 46.5506 40.4917 47.3283 40.4917C48.1063 40.4917 48.7369 39.8707 48.7369 39.105V39.0723C48.7369 38.3064 48.1064 37.6855 47.3283 37.6855Z" fill="black"/>
<path d="M24.7908 37.6855C24.0131 37.6855 23.3822 38.3065 23.3822 39.0723V39.105C23.3822 39.8707 24.0131 40.4917 24.7908 40.4917C25.5688 40.4917 26.1994 39.8707 26.1994 39.105V39.0723C26.1994 38.3064 25.5688 37.6855 24.7908 37.6855Z" fill="black"/>
<path d="M36.0597 37.6855C35.2818 37.6855 34.6511 38.3065 34.6511 39.0723V39.105C34.6511 39.8707 35.2818 40.4917 36.0597 40.4917C36.8374 40.4917 37.4684 39.8707 37.4684 39.105V39.0723C37.4684 38.3064 36.8376 37.6855 36.0597 37.6855Z" fill="black"/>
<path d="M7.46538 48.8129C6.6874 48.8129 6.05676 49.4337 6.05676 50.1996L6.05704 61.0334C6.05704 61.7992 6.68796 62.4201 7.46566 62.4201C8.24364 62.4201 8.87427 61.7991 8.87427 61.0334L8.87399 50.1996C8.87399 49.4337 8.24336 48.8129 7.46538 48.8129Z" fill="black"/>
<path d="M7.46513 63.6307C6.68744 63.6307 6.05652 64.2517 6.05652 65.0175V65.05C6.05652 65.8158 6.68744 66.4368 7.46513 66.4368C8.24311 66.4368 8.87375 65.8158 8.87375 65.05V65.0175C8.87375 64.2517 8.24325 63.6307 7.46513 63.6307Z" fill="black"/>
<path d="M64.6552 62.4201C65.4331 62.4201 66.0638 61.7991 66.0638 61.0334L66.0635 50.1996C66.0635 49.4337 65.4329 48.8129 64.6549 48.8129C63.8769 48.8129 63.2463 49.4337 63.2463 50.1996L63.2466 61.0334C63.2466 61.7992 63.8775 62.4201 64.6552 62.4201Z" fill="black"/>
<path d="M64.6549 66.4369C65.4329 66.4369 66.0635 65.816 66.0635 65.0502V65.0176C66.0635 64.2519 65.4329 63.6309 64.6549 63.6309C63.8772 63.6309 63.2463 64.2519 63.2463 65.0176V65.0502C63.2463 65.816 63.8772 66.4369 64.6549 66.4369Z" fill="black"/>
</svg>
