<svg width="71" height="71" viewBox="0 0 71 71" fill="none" xmlns="http://www.w3.org/2000/svg">
<path d="M69.613 37.7184H59.074V32.865C59.074 32.0992 58.4531 31.4783 57.6873 31.4783H53.5271V26.6249C53.5271 25.859 52.9063 25.2382 52.1404 25.2382H49.3669V23.5738C49.3667 16.3959 43.8837 10.4747 36.8865 9.77665V8.32073H46.5932C47.3591 8.32073 47.9799 7.69976 47.9799 6.93401V1.38672C47.9799 0.620973 47.3591 0 46.5932 0H35.4997C34.7339 0 34.113 0.620973 34.113 1.38672V6.93401V9.77651C27.1155 10.4744 21.6328 16.3957 21.6325 23.5738V25.2382H18.8591C18.0935 25.2382 17.4724 25.859 17.4724 26.6249V31.4783H13.3122C12.5466 31.4783 11.9255 32.0992 11.9255 32.865V37.7184H1.38672C0.620696 37.7184 0 38.3393 0 39.1051V69.6133C0 70.3791 0.620834 71 1.38672 71H69.613C70.3788 71 70.9998 70.3791 70.9998 69.6133V39.1051C70.9998 38.3393 70.3788 37.7184 69.613 37.7184ZM36.8865 2.77344H45.2065V5.54729H36.8865V2.77344ZM24.406 23.5738C24.4063 17.4573 29.3828 12.4809 35.4997 12.4809C41.6164 12.4809 46.5932 17.4573 46.5935 23.5738V25.2382H24.406V23.5738ZM20.2458 28.0116H50.7537V31.4783H46.5927H20.2458V28.0116ZM28.5656 57.9826L26.7409 58.5908C26.1746 58.7796 25.7927 59.3096 25.7927 59.9064V68.2266H20.2458V51.1991L28.5656 48.4259V57.9826ZM34.113 68.2266H28.5661V60.906L30.3637 60.3068C30.3649 60.3065 30.366 60.3061 30.3669 60.3058L34.113 59.0571V68.2266ZM35.9277 55.8144C35.9098 55.8087 35.8919 55.804 35.874 55.799C35.851 55.7926 35.828 55.7865 35.805 55.7812C35.7873 55.7773 35.7695 55.7736 35.7516 55.7704C35.7254 55.7655 35.699 55.7617 35.6728 55.7583C35.6577 55.7564 35.6424 55.7543 35.6273 55.7529C35.5423 55.745 35.4569 55.745 35.3722 55.7529C35.3568 55.7543 35.3418 55.7564 35.3264 55.7583C35.3002 55.7617 35.2738 55.7655 35.2479 55.7704C35.23 55.7736 35.2121 55.7773 35.1945 55.7812C35.1712 55.7865 35.1482 55.7926 35.1255 55.799C35.1076 55.804 35.0894 55.8087 35.0718 55.8144C35.0683 55.8156 35.0647 55.8163 35.0613 55.8175L31.339 57.0581V47.5015L35.4997 46.1147L39.6593 47.5011V57.0578L35.9382 55.8175C35.9348 55.8163 35.9311 55.8156 35.9277 55.8144ZM42.4336 68.2266H36.8865V59.0571L40.6187 60.3011C40.626 60.3036 40.6328 60.3061 40.64 60.3083L42.4336 60.9061V68.2266ZM45.2071 68.2266V59.9064C45.2071 59.3094 44.8249 58.7796 44.2588 58.5908L42.4328 57.9822V48.4255L50.7537 51.1991V68.2266H45.2071ZM68.2263 68.2266H53.5271V50.1995C53.5271 49.6025 53.1452 49.0727 52.5789 48.8839L35.9382 43.3373C35.6535 43.2425 35.346 43.2425 35.0613 43.3373L29.5402 45.1777L29.5399 45.1778L18.4206 48.8841C17.8543 49.0728 17.4724 49.6028 17.4724 50.1997V68.2266H2.77344V40.4918H13.3122C14.0781 40.4918 14.6989 39.8708 14.6989 39.1051V34.2517H17.4721V39.1051C17.4721 39.8708 18.0932 40.4918 18.8588 40.4918C19.6247 40.4918 20.2455 39.8708 20.2455 39.1051V34.2517H23.019V35.0882C23.019 35.8539 23.6401 36.4749 24.4057 36.4749C25.1716 36.4749 25.7924 35.8539 25.7924 35.0882V34.2517H28.5656V39.1051C28.5656 39.8708 29.1867 40.4918 29.9523 40.4918C30.7182 40.4918 31.339 39.8708 31.339 39.1051V34.2517H34.1127V35.0882C34.1127 35.8539 34.7336 36.4749 35.4995 36.4749C36.2651 36.4749 36.8862 35.8539 36.8862 35.0882V34.2517H39.6593V39.1051C39.6593 39.8708 40.2802 40.4918 41.0461 40.4918C41.8118 40.4918 42.4328 39.8708 42.4328 39.1051V34.2517H45.2062V35.0883C45.2065 35.854 45.8273 36.4749 46.5929 36.4749H46.5932C47.3591 36.4747 47.9799 35.8538 47.9797 35.088V34.2517H50.7528V39.1051C50.7528 39.8708 51.3739 40.4918 52.1395 40.4918C52.9054 40.4918 53.5263 39.8708 53.5263 39.1051V34.2517H56.3005V39.1051C56.3005 39.8708 56.9216 40.4918 57.6873 40.4918H68.2263V68.2266Z" fill="white"/>
<path d="M13.3123 48.813C12.5466 48.813 11.9255 49.4338 11.9255 50.1997V65.0504C11.9255 65.8161 12.5466 66.4371 13.3123 66.4371C14.0781 66.4371 14.699 65.8161 14.699 65.0504V50.1997C14.699 49.4338 14.0781 48.813 13.3123 48.813Z" fill="white"/>
<path d="M56.3003 50.1997V65.0504C56.3003 65.8161 56.9214 66.4371 57.687 66.4371C58.4529 66.4371 59.0737 65.8161 59.0737 65.0504V50.1997C59.0737 49.4338 58.4529 48.813 57.687 48.813C56.9214 48.813 56.3003 49.4338 56.3003 50.1997Z" fill="white"/>
<path d="M46.5927 37.6855C45.827 37.6855 45.2059 38.3065 45.2059 39.0723V39.105C45.2059 39.8707 45.827 40.4917 46.5927 40.4917C47.3585 40.4917 47.9794 39.8707 47.9794 39.105V39.0723C47.9794 38.3064 47.3587 37.6855 46.5927 37.6855Z" fill="white"/>
<path d="M24.4054 37.6855C23.6398 37.6855 23.0187 38.3065 23.0187 39.0723V39.105C23.0187 39.8707 23.6398 40.4917 24.4054 40.4917C25.1713 40.4917 25.7921 39.8707 25.7921 39.105V39.0723C25.7921 38.3064 25.1713 37.6855 24.4054 37.6855Z" fill="white"/>
<path d="M35.4993 37.6855C34.7334 37.6855 34.1125 38.3065 34.1125 39.0723V39.105C34.1125 39.8707 34.7334 40.4917 35.4993 40.4917C36.2649 40.4917 36.886 39.8707 36.886 39.105V39.0723C36.886 38.3064 36.265 37.6855 35.4993 37.6855Z" fill="white"/>
<path d="M7.34937 48.813C6.58348 48.813 5.96265 49.4338 5.96265 50.1997L5.96292 61.0335C5.96292 61.7993 6.58404 62.4202 7.34964 62.4202C8.11553 62.4202 8.73636 61.7992 8.73636 61.0335L8.73609 50.1997C8.73609 49.4338 8.11525 48.813 7.34937 48.813Z" fill="white"/>
<path d="M7.34912 63.6309C6.58351 63.6309 5.9624 64.2518 5.9624 65.0176V65.0502C5.9624 65.8159 6.58351 66.4369 7.34912 66.4369C8.11501 66.4369 8.73584 65.8159 8.73584 65.0502V65.0176C8.73584 64.2518 8.11515 63.6309 7.34912 63.6309Z" fill="white"/>
<path d="M63.6502 62.4202C64.4161 62.4202 65.0369 61.7992 65.0369 61.0335L65.0366 50.1997C65.0366 49.4338 64.4158 48.813 63.6499 48.813C62.884 48.813 62.2632 49.4338 62.2632 50.1997L62.2635 61.0335C62.2635 61.7993 62.8846 62.4202 63.6502 62.4202Z" fill="white"/>
<path d="M63.6499 66.4369C64.4158 66.4369 65.0366 65.8159 65.0366 65.0502V65.0176C65.0366 64.2518 64.4158 63.6309 63.6499 63.6309C62.8843 63.6309 62.2632 64.2518 62.2632 65.0176V65.0502C62.2632 65.8159 62.8843 66.4369 63.6499 66.4369Z" fill="white"/>
</svg>
